<svg width="240" height="72" viewBox="0 0 240 72" fill="none" xmlns="http://www.w3.org/2000/svg">
  <rect width="240" height="72" rx="18" fill="#F3F7FB"/>
  <rect x="12" y="12" width="48" height="48" rx="14" fill="#0F6CBD"/>
  <path d="M26 24H38C43.5228 24 48 28.4772 48 34C48 39.5228 43.5228 44 38 44H26V24Z" fill="white"/>
  <path d="M31 31H38C39.6569 31 41 32.3431 41 34C41 35.6569 39.6569 37 38 37H31V31Z" fill="#0F6CBD"/>
  <path d="M31 39H38C39.6569 39 41 40.3431 41 42C41 43.6569 39.6569 45 38 45H31V39Z" fill="#0F6CBD"/>
  <path d="M77 29.4H88.736C95.2784 29.4 99.68 33.064 99.68 38.696C99.68 44.296 95.2784 47.96 88.736 47.96H82.792V56H77V29.4ZM88.448 43.112C91.728 43.112 93.8 41.392 93.8 38.696C93.8 35.968 91.728 34.248 88.448 34.248H82.792V43.112H88.448ZM102.902 56V29.4H122.358V34.152H108.694V40.12H120.766V44.76H108.694V51.248H122.838V56H102.902ZM126.565 42.7C126.565 34.728 132.677 28.92 140.925 28.92C145.525 28.92 149.437 30.592 152.021 33.624L148.309 37.048C146.469 34.936 144.157 33.872 141.213 33.872C135.773 33.872 132.437 37.688 132.437 42.7C132.437 47.712 135.773 51.528 141.213 51.528C144.157 51.528 146.469 50.464 148.309 48.32L152.021 51.744C149.437 54.808 145.525 56.48 140.893 56.48C132.677 56.48 126.565 50.672 126.565 42.7ZM155.244 56V29.4H161.036V56H155.244ZM166.505 56V29.4H171.273L183.777 44.632V29.4H189.513V56H184.793L172.241 40.768V56H166.505ZM194.902 56V29.4H214.358V34.152H200.694V40.12H212.766V44.76H200.694V51.248H214.838V56H194.902Z" fill="#16324F"/>
</svg>
