<svg width="200" height="61" viewBox="0 0 200 61" fill="none" xmlns="http://www.w3.org/2000/svg">
  <path d="M6.1 25.9H4.3C3.6 25.9 3 25.1 3 24V6.9C3 5.9 3.6 5 4.3 5H19.6C20.5 5 21.3 6 21.3 7.3V24C21.3 25 20.7 25.9 20 25.9H14.9H6.1Z" fill="#10BEF3"/>
  <path d="M20.4 25.9H18.6C17.9 25.9 17.3 25.2 17.3 24.3V9.9C17.3 9 17.9 8.3 18.6 8.3H33.9C34.8 8.3 35.6 9.2 35.6 10.3V24.3C35.6 25.2 35 25.9 34.3 25.9H29.2H20.4Z" fill="#10BEF3"/>
  <path d="M25 8.7C25 7.7 25.8 6.9 26.8 6.9H32C35 6.9 37.3 9.3 37.3 12.2V23C37.3 26 34.9 28.3 32 28.3H11.8C10.8 28.3 10 27.5 10 26.5C10 25.5 10.8 24.7 11.8 24.7H32C33 24.7 33.8 23.9 33.8 22.9V12.3C33.8 11.3 33 10.5 32 10.5H26.9C25.8 10.5 25 9.7 25 8.7Z" fill="#13134B"/>
  <path d="M5.3 5.5C4.3 5.5 3.5 6.3 3.5 7.3V23.2C3.5 24.2 2.7 25 1.7 25C0.8 25 0 24.2 0 23.2V7.3C0 4.3 2.4 1.9 5.3 1.9H17.6C20.6 1.9 23 4.3 23 7.3V12.9C23 15.9 20.6 18.2 17.6 18.2H17.5C14.5 18.2 12.2 15.8 12.2 12.9V11C12.2 10 13 9.2 14 9.2C15 9.2 15.8 10 15.8 11V12.8C15.8 13.8 16.6 14.6 17.6 14.6H17.7C18.7 14.6 19.5 13.8 19.5 12.8V7.3C19.5 6.3 18.7 5.5 17.7 5.5H5.3Z" fill="#13134B"/>
  <path d="M71.5 21.3C71.5 25.7 68.1 28.3 61.5 28.3H48.7V2.6H60.7C66.8 2.6 70.1 5.2 70.1 9.3C70.1 11.9 68.8 13.9 66.8 14.9C69.6 15.8 71.5 18 71.5 21.3ZM53.5 6.4V13.5H60.2C63.5 13.5 65.4 12.3 65.4 10C65.4 7.7 63.5 6.4 60.2 6.4H53.5ZM66.7 20.8C66.7 18.2 64.8 17.1 61.2 17.1H53.5V24.5H61.2C64.7 24.5 66.7 23.4 66.7 20.8Z" fill="#13134B"/>
  <path d="M87.4 8.5V12.9C87 12.8 86.7 12.8 86.3 12.8C82.8 12.8 80.6 14.9 80.6 18.8V28.3H76V8.7H80.4V11.6C81.8 9.5 84.2 8.5 87.4 8.5Z" fill="#13134B"/>
  <path d="M90.7 2.7C90.7 1.2 91.9 0 93.6 0C95.3 0 96.5 1.1 96.5 2.6C96.5 4.2 95.3 5.5 93.6 5.5C91.9 5.5 90.7 4.3 90.7 2.7ZM91.3 8.7H95.9V28.2H91.3V8.7Z" fill="#13134B"/>
  <path d="M120.2 19.9H104.9C105.5 22.8 107.8 24.6 111.2 24.6C113.4 24.6 115.1 23.9 116.5 22.5L119 25.3C117.2 27.4 114.5 28.5 111.1 28.5C104.5 28.5 100.3 24.3 100.3 18.5C100.3 12.7 104.6 8.5 110.4 8.5C116.1 8.5 120.3 12.5 120.3 18.6C120.3 19 120.2 19.5 120.2 19.9ZM104.8 16.9H115.9C115.5 14.1 113.4 12.1 110.4 12.1C107.5 12.1 105.2 14.1 104.8 16.9Z" fill="#13134B"/>
  <path d="M129.7 7.7V8.9H135.1V12.6H129.9V28.3H125.3V12.5H122V8.9H125.2V7.6C125.2 3.5 127.7 0.8 132.2 0.8C133.8 0.8 135.3 1.1 136.3 1.9L135 5.3C134.3 4.8 133.4 4.5 132.5 4.5C130.7 4.5 129.7 5.6 129.7 7.7Z" fill="#13134B"/>
  <path d="M47.2 47C47.2 39.5 52.9 34 60.6 34C64.3 34 67.7 35.2 70 37.7L68.3 39.4C66.2 37.3 63.7 36.4 60.7 36.4C54.5 36.4 49.9 40.9 49.9 47C49.9 53.1 54.5 57.6 60.7 57.6C63.6 57.6 66.2 56.7 68.3 54.5L70 56.2C67.7 58.7 64.4 60 60.6 60C52.9 60.1 47.2 54.5 47.2 47Z" fill="#13134B"/>
  <path d="M72.4 50.2C72.4 44.5 76.6 40.4 82.2 40.4C87.9 40.4 92 44.5 92 50.2C92 55.9 87.9 60 82.2 60C76.6 60 72.4 55.9 72.4 50.2ZM89.4 50.2C89.4 45.7 86.4 42.7 82.3 42.7C78.2 42.7 75.1 45.7 75.1 50.2C75.1 54.7 78.2 57.7 82.3 57.7C86.3 57.7 89.4 54.7 89.4 50.2Z" fill="#13134B"/>
  <path d="M115 48.7V59.9H112.4V49C112.4 44.9 110.3 42.9 106.6 42.9C102.5 42.9 99.9 45.5 99.9 49.9V60H97.3V40.6H99.8V44.2C101.2 41.9 103.8 40.5 107.1 40.5C111.8 40.5 115 43.2 115 48.7Z" fill="#13134B"/>
  <path d="M139.8 48.7V59.9H137.2V49C137.2 44.9 135.1 42.9 131.4 42.9C127.3 42.9 124.7 45.5 124.7 49.9V60H122.1V40.6H124.6V44.2C126 41.9 128.6 40.5 131.9 40.5C136.6 40.5 139.8 43.2 139.8 48.7Z" fill="#13134B"/>
  <path d="M163.7 51H147.6C147.9 55 151 57.7 155.2 57.7C157.5 57.7 159.6 56.9 161.1 55.2L162.6 56.9C160.9 59 158.2 60 155.2 60C149.2 60 145.1 55.9 145.1 50.2C145.1 44.5 149.1 40.4 154.5 40.4C159.9 40.4 163.8 44.4 163.8 50.2C163.7 50.5 163.7 50.7 163.7 51ZM147.6 49.1H161.3C161 45.3 158.2 42.7 154.5 42.7C150.6 42.7 147.9 45.3 147.6 49.1Z" fill="#13134B"/>
  <path d="M167.1 50.2C167.1 44.5 171.3 40.4 177 40.4C180.3 40.4 183 41.7 184.5 44.2L182.6 45.5C181.3 43.6 179.2 42.6 177 42.6C172.8 42.6 169.7 45.6 169.7 50.1C169.7 54.6 172.8 57.6 177 57.6C179.2 57.6 181.3 56.7 182.6 54.8L184.5 56.1C183 58.6 180.3 59.9 177 59.9C171.3 60 167.1 56 167.1 50.2Z" fill="#13134B"/>
  <path d="M200 58.7C199 59.6 197.4 60.1 195.9 60.1C192.3 60.1 190.3 58 190.3 54.5V42.8H186.9V40.6H190.3V36.4H192.9V40.6H198.8V42.8H192.9V54.3C192.9 56.6 194.1 57.8 196.2 57.8C197.3 57.8 198.3 57.5 199.1 56.8L200 58.7Z" fill="#13134B"/>
</svg>
