<svg width="64" height="64" viewBox="0 0 40 40" fill="none" xmlns="http://www.w3.org/2000/svg">
  <rect width="40" height="40" rx="10" fill="white"/>
  <g transform="translate(2 5)">
    <path d="M6.1 25.9H4.3C3.6 25.9 3 25.1 3 24V6.9C3 5.9 3.6 5 4.3 5H19.6C20.5 5 21.3 6 21.3 7.3V24C21.3 25 20.7 25.9 20 25.9H14.9H6.1Z" fill="#10BEF3"/>
    <path d="M20.4 25.9H18.6C17.9 25.9 17.3 25.2 17.3 24.3V9.9C17.3 9 17.9 8.3 18.6 8.3H33.9C34.8 8.3 35.6 9.2 35.6 10.3V24.3C35.6 25.2 35 25.9 34.3 25.9H29.2H20.4Z" fill="#10BEF3"/>
    <path d="M25 8.7C25 7.7 25.8 6.9 26.8 6.9H32C35 6.9 37.3 9.3 37.3 12.2V23C37.3 26 34.9 28.3 32 28.3H11.8C10.8 28.3 10 27.5 10 26.5C10 25.5 10.8 24.7 11.8 24.7H32C33 24.7 33.8 23.9 33.8 22.9V12.3C33.8 11.3 33 10.5 32 10.5H26.9C25.8 10.5 25 9.7 25 8.7Z" fill="#13134B"/>
    <path d="M5.3 5.5C4.3 5.5 3.5 6.3 3.5 7.3V23.2C3.5 24.2 2.7 25 1.7 25C0.8 25 0 24.2 0 23.2V7.3C0 4.3 2.4 1.9 5.3 1.9H17.6C20.6 1.9 23 4.3 23 7.3V12.9C23 15.9 20.6 18.2 17.6 18.2H17.5C14.5 18.2 12.2 15.8 12.2 12.9V11C12.2 10 13 9.2 14 9.2C15 9.2 15.8 10 15.8 11V12.8C15.8 13.8 16.6 14.6 17.6 14.6H17.7C18.7 14.6 19.5 13.8 19.5 12.8V7.3C19.5 6.3 18.7 5.5 17.7 5.5H5.3Z" fill="#13134B"/>
  </g>
</svg>
